<?xml version="1.0" encoding="utf-8"?>
<!-- Generator: Adobe Illustrator 24.3.0, SVG Export Plug-In . SVG Version: 6.00 Build 0)  -->
<svg version="1.1" id="b368e7d6-7c4a-408c-9a35-0514749a7e1a"
	 xmlns="http://www.w3.org/2000/svg" xmlns:xlink="http://www.w3.org/1999/xlink" x="0px" y="0px" viewBox="0 0 870 520.1"
	 style="enable-background:new 0 0 870 520.1;" xml:space="preserve">
<style type="text/css">
	.st0{fill:#F2F2F2;}
	.st1{fill:#FFFFFF;}
	.st2{fill:#D40500;}
	.st3{fill:#CC1E1E;}
	.st4{fill:#FFB8B8;}
	.st5{fill:#2F2E41;}
	.st6{fill:#CCCCCC;}
</style>
<path class="st0" d="M666.1,514.3c-11.1-9.4-17.9-24.3-16.1-38.8s12.8-27.8,27-30.9s30.5,5.4,34.8,19.4c2.4-26.8,5.1-54.8,19.4-77.7
	c12.9-20.7,35.3-35.5,59.6-38.2s49.8,7.4,64.9,26.5c15.1,19.1,18.8,47,8.2,69c-7.8,16.2-22.2,28.2-37.3,38.1
	c-48.7,31.4-107.1,44.2-164.5,36L666.1,514.3z"/>
<path class="st1" d="M831.7,356.1c-20,16.3-38.4,34.5-54.8,54.4c-25.7,31-46.6,65.8-61.8,103.2c-1.1,2.7,3.3,3.9,4.4,1.2
	c24.9-60.7,64.5-114.2,115.4-155.6C837.2,357.5,834,354.2,831.7,356.1z"/>
<path class="st0" d="M280.1,511.7c15.3-12.9,24.6-33.3,22.2-53.2s-17.5-38.2-37.1-42.4s-41.9,7.5-47.8,26.6
	c-3.3-36.9-7-75.3-26.6-106.7c-17.8-28.4-48.5-48.8-81.8-52.4S40.4,293.7,19.6,320s-25.9,64.5-11.3,94.7C19,437,38.8,453.5,59.5,467
	c66,43,147.9,60.9,225.9,49.4"/>
<path class="st1" d="M52.6,294.4c27.5,22.4,52.7,47.4,75.3,74.8c22.6,27.3,42.5,56.7,59.4,87.9c9.5,17.5,17.9,35.4,25.4,53.8
	c1.5,3.7-4.5,5.4-6.1,1.7c-13.3-32.4-29.7-63.5-49-92.7c-19.2-29.1-41.2-56.3-65.7-81.2c-13.8-14.1-28.5-27.4-43.8-39.8
	C45,296.3,49.5,291.9,52.6,294.4L52.6,294.4z"/>
<path class="st0" d="M624.5,519h-365V144.5C259.5,64.8,324.3,0,404,0h76c79.7,0,144.5,64.8,144.5,144.5V519z"/>
<path class="st2" d="M548.5,519h-289V144.5c-0.1-30.5,9.6-60.3,27.6-84.9c0.7-0.9,1.3-1.8,2-2.7c8.7-11.4,19.1-21.5,30.8-29.9
	c0.7-0.5,1.3-1,2-1.4c9.8-6.8,20.3-12.3,31.5-16.5c0.7-0.3,1.3-0.5,2-0.7c10.1-3.6,20.5-6.1,31.1-7.3c0.7-0.1,1.3-0.2,2-0.2
	c10.3-1.1,20.8-1.1,31.1,0c0.7,0.1,1.3,0.1,2,0.2c10.6,1.3,21,3.7,31.1,7.3c0.7,0.2,1.3,0.5,2,0.7c11,4.1,21.4,9.6,31.1,16.2
	c0.7,0.5,1.3,0.9,2,1.4c6.5,4.7,12.7,9.9,18.4,15.6c4.6,4.6,8.8,9.4,12.7,14.6c0.7,0.9,1.3,1.8,2,2.7c18,24.7,27.7,54.4,27.6,84.9
	V519z"/>
<circle class="st3" cx="525" cy="335.5" r="16"/>
<polygon class="st4" points="594.6,507.8 582.3,507.8 576.5,460.5 594.6,460.5 "/>
<path class="st5" d="M573.6,504.3h23.6l0,0v14.9l0,0h-38.5l0,0l0,0C558.7,510.9,565.4,504.3,573.6,504.3L573.6,504.3z"/>
<polygon class="st4" points="655.6,507.8 643.3,507.8 637.5,460.5 655.6,460.5 "/>
<path class="st5" d="M634.6,504.3h23.6l0,0v14.9l0,0h-38.5l0,0l0,0C619.7,510.9,626.4,504.3,634.6,504.3L634.6,504.3z"/>
<path class="st4" d="M533.1,338.7c-3.3-4.9-2.1-11.6,2.9-14.9c0.5-0.4,1.1-0.7,1.7-0.9L579.3,208l20.5,11.2l-47.6,109.8
	c2.1,5.6-0.8,11.8-6.4,13.9C541.1,344.5,535.9,342.8,533.1,338.7z"/>
<path class="st4" d="M649.3,360.3c-5.1-3-6.9-9.5-4-14.7c0.3-0.5,0.7-1.1,1.1-1.6l-12.9-121.5l23.3,1.1l5.4,119.5
	c4.3,4.1,4.5,11,0.3,15.3C659.1,362,653.7,362.8,649.3,360.3L649.3,360.3z"/>
<circle class="st4" cx="612.1" cy="162.1" r="24.6"/>
<path class="st3" d="M649.2,332.6h-74l0.1-0.6c0.1-0.9,13.2-86.4,3.6-114.4c-2-5.7,0.6-12,6.1-14.6h0c13.8-6.5,40.2-14.5,62.5,4.9
	c6.7,5.9,10.2,14.5,9.5,23.4L649.2,332.6z"/>
<path class="st3" d="M589.4,258.3l-33.3-6.8l15.6-37c1.9-7.5,9.6-12,17.1-10c7.5,1.9,11.9,9.5,10,17L589.4,258.3z"/>
<path class="st3" d="M632.1,270.8l-2-45.9c-1.5-8.6,3.4-16.8,11-18.1c7.6-1.3,15,4.7,16.6,13.4l7.5,42.9L632.1,270.8z"/>
<path class="st5" d="M646.7,327.1c11.9,45.4,13.2,103.1,10,166l-16-2l-29-120l-16,122l-18-1c-5.4-66-10.6-122.7-2-160L646.7,327.1z"
	/>
<path class="st5" d="M628.3,181.1c-4.6,4.9-13.1,2.3-13.7-4.4c0-0.5,0-1,0-1.6c0.3-3,2-5.6,1.6-8.8c-0.1-0.8-0.4-1.5-0.8-2.1
	c-3.7-4.9-12.2,2.2-15.7-2.2c-2.1-2.7,0.4-7-1.3-10c-2.1-4-8.5-2-12.5-4.2c-4.4-2.4-4.2-9.2-1.2-13.4c3.6-5,9.8-7.7,15.9-8.1
	c6.1-0.4,12.3,1.3,18,3.5c6.5,2.5,13,6.1,17,11.8c4.9,7,5.3,16.3,2.9,24.5C637.1,171.1,632,177.1,628.3,181.1z"/>
<path class="st1" d="M469,410.5H339c-3.6,0-6.5-2.9-6.5-6.4V113.9c0-3.6,2.9-6.4,6.5-6.4h130c3.6,0,6.5,2.9,6.5,6.4v290.2
	C475.5,407.6,472.6,410.5,469,410.5z"/>
<rect x="332.5" y="201.4" class="st6" width="143" height="2"/>
<rect x="333" y="315.5" class="st6" width="143" height="2"/>
<rect x="377.5" y="107.5" class="st6" width="2" height="304"/>
<rect x="427.5" y="107.5" class="st6" width="2" height="304"/>
</svg>
