<?xml version="1.0" encoding="utf-8"?>
<!-- Generator: Adobe Illustrator 24.3.0, SVG Export Plug-In . SVG Version: 6.00 Build 0)  -->
<svg version="1.1" id="ed709b15-984e-4c6b-b13e-799af1de279c"
	 xmlns="http://www.w3.org/2000/svg" xmlns:xlink="http://www.w3.org/1999/xlink" x="0px" y="0px" viewBox="0 0 829.7 548.9"
	 style="enable-background:new 0 0 829.7 548.9;" xml:space="preserve">
<style type="text/css">
	.st0{fill:#FFB8B8;}
	.st1{fill:#2F2E41;}
	.st2{fill:#FFFFFF;}
	.st3{fill:#CC1E1E;}
	.st4{fill:#E6E6E6;}
	.st5{fill:#3F3D56;}
</style>
<polygon class="st0" points="480.6,514.9 464.2,514.9 464.2,355.3 501.5,354.5 "/>
<polygon class="st0" points="559.7,514.9 576.1,514.9 576.1,355.3 538.8,354.5 "/>
<path class="st1" d="M472.9,537.1l-34.9-0.3c-6.1,1.5-12.2-2.2-13.7-8.3c-0.2-0.9-0.3-1.8-0.3-2.7l0,0c0-4.4,2.5-8.3,6.4-10.2l8-3.8
	l25.9-17.7l18.6,5.2l3.6,16.1C488.6,525,482.6,534.7,472.9,537.1z"/>
<path class="st1" d="M566.9,536.9l-34.9-0.3c-6.1,1.5-12.2-2.2-13.7-8.3c-0.2-0.9-0.3-1.8-0.3-2.7l0,0c0-4.4,2.5-8.3,6.4-10.2l8-3.8
	l25.9-17.7l18.6,5.2l3.6,16.1C582.6,524.8,576.6,534.5,566.9,536.9z"/>
<path class="st1" d="M580.5,381.4l-51.4-4.6l-6.8-60.3l-15.2,58.3l-52-4.6c1.9-35.7,6-65.5,15.7-80.5l108.9-19.4L580.5,381.4z"/>
<circle class="st0" cx="528.6" cy="74.4" r="27.8"/>
<path class="st0" d="M550.7,132.4l-48.5-6c6.2-13.1,8.9-25.4,4.5-35.8H544C538.2,100.9,543.4,116.1,550.7,132.4z"/>
<path class="st2" d="M579.8,271.8c-34.1,25-71.3,33.5-111.9,24.6c24.6-56.1,21.1-111.5,0-166.3l38.8-16.4
	c10.9,10.6,23.3,10.8,37.3,1.5l38,8.2C575.1,178.1,572.7,228.9,579.8,271.8z"/>
<path class="st1" d="M508.1,50.2l-4.7-1.9c0,0,9.8-10.8,23.5-9.9l-3.8-4.2c0,0,9.4-3.8,17.9,6.1c4.5,5.2,9.7,11.3,12.9,18.1h5
	l-2.1,4.6l7.3,4.6l-7.5-0.8c0.7,4,0.5,8.1-0.7,12l0.2,3.6c0,0-8.7-13.5-8.7-15.4v4.7c0,0-4.7-4.2-4.7-7l-2.6,3.3l-1.3-5.2L523,68
	l2.6-4.2l-9.8,1.4l3.8-5.2c0,0-11.1,6.1-11.5,11.3c-0.4,5.2-6,11.7-6,11.7l-2.6-4.7C499.6,78.4,495.7,57.2,508.1,50.2z"/>
<path class="st3" d="M586.6,330.9H418.1c-3.6,0-6.4-2.9-6.4-6.4v-25.8c0-3.6,2.9-6.4,6.4-6.4h168.5c3.6,0,6.4,2.9,6.4,6.4v25.8
	C593,328,590.2,330.9,586.6,330.9z"/>
<path id="e6024a0c-b89c-4e07-9a96-496d93fbcaea" class="st2" d="M443.3,306.1c-3,0.1-5.4,2.5-5.4,5.6c0,3,2.4,5.3,5.4,5.4h117.9
	c3,0,5.5-2.4,5.5-5.4c0-3-2.4-5.5-5.4-5.5c-0.1,0-0.1,0-0.2,0H443.3z"/>
<path class="st0" d="M485.1,286l8.6,15.3c3.7,6.5,1.3,14.8-5.2,18.5c-1,0.6-2.1,1-3.2,1.3l0,0c-7.2,1.9-14.6-2.5-16.5-9.7
	c-0.3-1.2-0.5-2.4-0.4-3.7l0.4-20.9c-6.4-37.1-11.7-72.3-10.4-97h29.8l-6,28.3L485.1,286z"/>
<path class="st0" d="M583.5,289.7l-6.3,10.5c-3.4,5.7-10.9,7.6-16.6,4.1c-1.4-0.8-2.6-1.9-3.6-3.3l0,0c-3.9-5.4-2.7-12.9,2.7-16.9
	c0,0,0.1,0,0.1-0.1l11-7.8l15.7-64.9l-9.7-26.8l26.8-4.5C616.3,209.2,603.6,248.1,583.5,289.7z"/>
<path class="st2" d="M494.8,195.7l-39.5-2.2l2.7-42.4c-0.3-12.3,7.9-23.3,19.9-26.4l5-1.3L494.8,195.7z"/>
<path class="st2" d="M606.7,182.3l-36.5,8.9v-70.1l1.5-0.1c12.4-0.8,23.5,7.6,26.1,19.8L606.7,182.3z"/>
<path class="st4" d="M26.6,487.8c0.5,20.3,3.9,40.4,10.1,59.7c0.1,0.4,0.3,0.9,0.4,1.3h37.6c0-0.4-0.1-0.8-0.1-1.3
	c-2.5-28.8-17-204.4,0.3-234.5C73.5,315.5,23.7,396.2,26.6,487.8z"/>
<path class="st4" d="M29.5,547.5c0.3,0.4,0.6,0.9,1,1.3h28.2c-0.2-0.4-0.5-0.8-0.7-1.3c-4.7-8.4-18.5-33.6-31.3-59.7
	c-13.8-28-26.4-57.1-25.3-67.7C1,422.5-8.6,495,29.5,547.5z"/>
<path class="st3" d="M381.9,224.3h-307c-3.9,0-7-3.1-7-7v-171c0-3.9,3.1-7,7-7h307c3.9,0,7,3.1,7,7v171
	C388.9,221.2,385.7,224.3,381.9,224.3z"/>
<path class="st4" d="M385.7,548.9h-315c-2.8,0-5-2.2-5-5v-500c0-2.8,2.2-5,5-5h315c2.8,0,5,2.2,5,5v500
	C390.7,546.6,388.4,548.9,385.7,548.9z M70.7,40.9c-1.7,0-3,1.3-3,3v500c0,1.7,1.3,3,3,3h315c1.7,0,3-1.3,3-3v-500c0-1.7-1.3-3-3-3
	H70.7z"/>
<circle class="st4" cx="107.9" cy="306.3" r="11"/>
<path class="st4" d="M339.9,327.3h-183c-3.9,0-7-3.1-7-7v-28c0-3.9,3.1-7,7-7h183c3.9,0,7,3.1,7,7v28
	C346.9,324.2,343.7,327.3,339.9,327.3z"/>
<path class="st5" d="M346.9,328.3h-197c-0.6,0-1-0.4-1-1c0-0.6,0.4-1,1-1h197c0.6,0,1,0.4,1,1C347.9,327.9,347.4,328.3,346.9,328.3z
	"/>
<circle class="st4" cx="107.9" cy="372.3" r="11"/>
<path class="st4" d="M339.9,393.3h-183c-3.9,0-7-3.1-7-7v-28c0-3.9,3.1-7,7-7h183c3.9,0,7,3.1,7,7v28
	C346.9,390.2,343.7,393.3,339.9,393.3z"/>
<path class="st5" d="M346.9,394.3h-197c-0.6,0-1-0.4-1-1s0.4-1,1-1h197c0.6,0,1,0.4,1,1S347.4,394.3,346.9,394.3z"/>
<circle class="st4" cx="107.9" cy="438.3" r="11"/>
<path class="st4" d="M232.9,459.3h-76c-3.9,0-7-3.1-7-7v-28c0-3.9,3.1-7,7-7h76c3.9,0,7,3.1,7,7v28
	C239.9,456.2,236.7,459.3,232.9,459.3z"/>
<path class="st5" d="M239.9,460.3h-90c-0.6,0-1-0.4-1-1s0.4-1,1-1h90c0.6,0,1,0.4,1,1S240.4,460.3,239.9,460.3z"/>
<path class="st4" d="M339.9,459.3h-76c-3.9,0-7-3.1-7-7v-28c0-3.9,3.1-7,7-7h76c3.9,0,7,3.1,7,7v28
	C346.9,456.2,343.7,459.3,339.9,459.3z"/>
<path class="st5" d="M346.9,460.3h-90c-0.6,0-1-0.4-1-1s0.4-1,1-1h90c0.6,0,1,0.4,1,1S347.4,460.3,346.9,460.3z"/>
<path id="aa22f97a-b0c4-48a0-9697-8e710bb4cd75" class="st2" d="M108.2,92.9c-3.3,0.1-5.9,2.8-5.8,6c0.1,3.2,2.6,5.8,5.8,5.8h240.1
	c3.3,0.1,6-2.6,6-5.8c0.1-3.3-2.6-6-5.8-6c-0.1,0-0.1,0-0.2,0H108.2z"/>
<path id="a17c1cae-a14a-457b-86dc-2629628de1d6" class="st2" d="M108.2,125.9c-3.3,0.1-5.9,2.8-5.8,6c0.1,3.2,2.6,5.8,5.8,5.8h240.1
	c3.3,0.1,6-2.6,6-5.8c0.1-3.3-2.6-6-5.8-6l0,0c-0.1,0-0.1,0-0.2,0H108.2z"/>
<path id="b5ca973b-c484-402e-90b9-a33cbeee2455" class="st2" d="M108.2,158.9c-3.3,0.1-5.9,2.8-5.8,6c0.1,3.2,2.6,5.8,5.8,5.8h240.1
	c3.3,0.1,6-2.6,6-5.8c0.1-3.3-2.6-6-5.8-6c-0.1,0-0.1,0-0.2,0H108.2z"/>
<path class="st3" d="M337.7,508.6l-2.5-2.5c-0.1-0.1-0.3-0.2-0.4-0.2h-1.2c-0.3,0-0.6,0.3-0.6,0.6c0,0.2,0.1,0.3,0.2,0.4l1.4,1.4
	h-11.1c-0.6,0-1,0.4-1,1s0.4,1,1,1h11.1l-1.3,1.3c-0.3,0.3-0.3,0.7,0,0.9c0.1,0.1,0.3,0.2,0.5,0.2h1c0.2,0,0.3-0.1,0.5-0.2l2.5-2.5
	C338.1,509.6,338.1,509,337.7,508.6L337.7,508.6z"/>
<path class="st5" d="M330.9,525.3c-8.8,0-16-7.2-16-16s7.2-16,16-16s16,7.2,16,16C346.9,518.2,339.7,525.3,330.9,525.3z
	 M330.9,495.3c-7.7,0-14,6.3-14,14s6.3,14,14,14s14-6.3,14-14C344.9,501.6,338.6,495.3,330.9,495.3z"/>
</svg>
